<?xml version="1.0" encoding="UTF-8"?><svg id="Layer_2" xmlns="http://www.w3.org/2000/svg" viewBox="0 0 79 79"><defs><style>.cls-1{fill:#38ff84;}</style></defs><g id="Layer_2-2"><polygon class="cls-1" points="26 38.51 49.03 38.51 42.96 32.87 44.31 31.42 53 39.5 44.31 47.58 42.96 46.13 49.04 40.49 26 40.49 26 38.51"/><path class="cls-1" d="M39.5,79C17.72,79,0,61.28,0,39.5S17.72,0,39.5,0s39.5,17.72,39.5,39.5-17.72,39.5-39.5,39.5Zm0-77C18.82,2,2,18.82,2,39.5s16.82,37.5,37.5,37.5,37.5-16.82,37.5-37.5S60.18,2,39.5,2Z"/></g></svg>