<?xml version="1.0" encoding="UTF-8"?><svg id="Layer_2" xmlns="http://www.w3.org/2000/svg" viewBox="0 0 79 79"><defs><style>.cls-1{fill:#38ff84;}</style></defs><g id="Layer_2-2"><polygon class="cls-1" points="53 38.51 29.97 38.51 36.04 32.87 34.69 31.42 26 39.5 34.69 47.58 36.04 46.13 29.96 40.49 53 40.49 53 38.51"/><path class="cls-1" d="M39.5,79C17.72,79,0,61.28,0,39.5S17.72,0,39.5,0s39.5,17.72,39.5,39.5-17.72,39.5-39.5,39.5Zm0-77C18.82,2,2,18.82,2,39.5s16.82,37.5,37.5,37.5,37.5-16.82,37.5-37.5S60.18,2,39.5,2Z"/></g></svg>