<?xml version="1.0" encoding="UTF-8"?><svg id="Layer_2" xmlns="http://www.w3.org/2000/svg" viewBox="0 0 328.75 329.14"><defs><style>.cls-1{fill:#f44336;}</style></defs><g id="Layer_1-2"><path class="cls-1" d="M0,313.07v-9.64c1.55-5.17,4.66-9.24,8.46-13.03,40.88-40.85,81.66-81.79,122.55-122.63,2.26-2.26,2.42-3.44,.06-5.79C90.4,121.38,49.84,80.67,9.19,40.04,5.19,36.04,1.69,31.85,0,26.36v-9.64C2.85,7.76,8.88,2.23,17.96,0h6.42c6.01,1.23,10.56,4.71,14.82,8.99,40.53,40.73,81.14,81.37,121.73,122.04q3.33,3.33,6.65,0c40.66-40.74,81.36-81.46,121.95-122.27,4.19-4.22,8.72-7.52,14.59-8.76,2.14,0,4.28,0,6.42,0,2.3,.87,4.73,1.48,6.86,2.64,13.2,7.16,15.19,24,4.12,35.11-41.09,41.23-82.23,82.41-123.34,123.61q-3.49,3.49-.02,6.97c40.44,40.52,80.88,81.03,121.31,121.55,1.36,1.36,2.77,2.69,4.02,4.15,4.79,5.61,6.28,12.1,4.59,19.21-1.92,8.13-7.52,12.93-14.98,15.9h-11.55c-4.94-1.79-8.83-5-12.51-8.7-40.45-40.63-80.97-81.19-121.47-121.77q-3.32-3.33-6.66,.01c-40.65,40.73-81.32,81.44-121.92,122.22-3.53,3.55-7.3,6.56-12.05,8.24H15.4c-7.72-2.87-12.81-8.26-15.4-16.07Z"/></g></svg>