<?xml version="1.0" encoding="UTF-8"?><svg id="Layer_2" xmlns="http://www.w3.org/2000/svg" viewBox="0 0 17.51 17.51"><defs><style>.cls-1{fill:#002c2c;}</style></defs><g id="Layer_1-2"><path class="cls-1" d="M0,15.32V2.19c.08-.4,.22-.78,.45-1.11C.88,.48,1.47,.14,2.19,0H15.32c.4,.08,.78,.22,1.11,.45,.6,.43,.94,1.02,1.08,1.73V15.32c-.08,.4-.22,.78-.45,1.11-.43,.6-1.02,.94-1.73,1.08h-4.51c0-.05-.01-.1-.01-.15,0-1.95,0-3.9,0-5.85,0-.16,.05-.21,.2-.21,.72,0,1.45,0,2.17,0,.18,0,.24-.07,.26-.23,.14-.87,.29-1.74,.43-2.61,.03-.2,.03-.22-.18-.22-.88,0-1.77,0-2.65,0-.24,0-.24,0-.24-.23,0-.54,0-1.07,0-1.61q0-.27,.27-.27c.88,0,1.77,0,2.65,0,.13,0,.2-.03,.2-.18,0-.9,0-1.8,0-2.7,0-.13-.05-.17-.17-.17-1.06,.02-2.12-.04-3.18,.03-.88,.06-1.59,.46-2.14,1.14-.5,.62-.68,1.34-.68,2.12,0,.56,0,1.12,0,1.68,0,.16-.05,.21-.21,.2-.54,0-1.08,0-1.62,0-.22,0-.22,0-.22,.22,0,.87,0,1.74,0,2.62,0,.21,0,.22,.23,.22,.52,0,1.05,0,1.57,0,.25,0,.25,0,.25,.25,0,1.92,0,3.83,0,5.75,0,.07,0,.14-.01,.2H2.19c-.4-.08-.78-.22-1.11-.45-.6-.43-.94-1.02-1.08-1.73Z"/></g></svg>