<?xml version="1.0" encoding="UTF-8"?><svg id="Layer_2" xmlns="http://www.w3.org/2000/svg" viewBox="0 0 18.03 18.06"><defs><style>.cls-1{fill:#002c2c;}</style></defs><g id="Layer_1-2"><g><path class="cls-1" d="M11.75,18.06H6.32c-.11-.04-.22-.03-.33-.03-.72-.02-1.44-.05-2.15-.22-1.49-.36-2.59-1.21-3.25-2.6-.41-.86-.52-1.79-.55-2.73C-.02,10.53,0,8.57,.02,6.62c0-.82,.02-1.65,.17-2.46,.23-1.26,.81-2.31,1.84-3.08C2.91,.41,3.94,.15,5.02,.07c.43-.03,.87-.01,1.3-.07h5.4c.42,.05,.84,.04,1.26,.07,.74,.05,1.46,.17,2.14,.48,1.66,.75,2.54,2.08,2.81,3.84,.05,.31,.07,.63,.11,.94v7.27c0,.06-.03,.13-.03,.19-.01,.36-.05,.71-.11,1.07-.2,1.13-.68,2.12-1.55,2.89-.94,.84-2.08,1.17-3.31,1.26-.43,.03-.86,.01-1.28,.07Zm-2.71-1.62c.48,0,.95,0,1.43,0,1.02-.01,2.05,.02,3.06-.14,1.33-.21,2.25-.93,2.65-2.24,.19-.6,.21-1.23,.23-1.85,.05-1.6,.04-3.2,.03-4.8,0-.95,0-1.91-.13-2.85-.21-1.45-1.1-2.41-2.52-2.73-.63-.14-1.27-.15-1.91-.16-1.58-.03-3.15-.03-4.73-.01-.9,0-1.81,0-2.71,.15-1.37,.24-2.28,1.11-2.6,2.47-.14,.59-.15,1.2-.17,1.8-.04,1.45-.04,2.9-.02,4.36,0,1.02-.01,2.04,.13,3.05,.13,.93,.53,1.73,1.32,2.28,.62,.42,1.32,.57,2.05,.62,1.3,.09,2.6,.07,3.9,.07Z"/><path class="cls-1" d="M9.05,13.67c-2.55,0-4.64-2.07-4.65-4.63,0-2.55,2.08-4.64,4.64-4.64,2.56,0,4.62,2.05,4.64,4.62,.02,2.55-2.06,4.64-4.63,4.65Zm-3.02-4.64c0,1.66,1.33,3.01,3,3.01,1.67,0,3.01-1.33,3.01-2.99,0-1.67-1.33-3.02-3.01-3.02-1.66,0-3,1.34-3.01,3Z"/><path class="cls-1" d="M14.94,4.21c0,.6-.47,1.08-1.07,1.09-.6,0-1.09-.48-1.09-1.08,0-.6,.47-1.08,1.07-1.08,.61,0,1.09,.47,1.09,1.08Z"/></g></g></svg>