<?xml version="1.0" encoding="UTF-8"?><svg xmlns="http://www.w3.org/2000/svg" viewBox="0 0 426.88 364.79"><defs><style>.cls-1{fill:#6ca0fa;}.cls-2{fill:#0f0f0f;}.cls-3,.cls-4{fill:#fff;}.cls-5{fill:#d0eaff;}.cls-6{stroke-dasharray:0 0 4.02 12.05;}.cls-6,.cls-7,.cls-8,.cls-9,.cls-10,.cls-11,.cls-12,.cls-13{fill:none;}.cls-6,.cls-8,.cls-10,.cls-11,.cls-12,.cls-13{stroke-linecap:round;stroke-linejoin:round;}.cls-6,.cls-10,.cls-11,.cls-12,.cls-13{stroke:#a5b9f6;stroke-width:.75px;}.cls-14{fill:#6287f6;}.cls-7{stroke:#4c7ed6;stroke-width:7px;}.cls-7,.cls-9{stroke-miterlimit:10;}.cls-15{fill:#cedcfd;}.cls-16{fill:#ebc827;}.cls-17{isolation:isolate;}.cls-18{fill:#faedec;}.cls-19{fill:#d68952;}.cls-8{stroke:#fff;}.cls-20{fill:#ff6822;}.cls-21{fill:#072c6e;}.cls-22{fill:#bf4d17;}.cls-23{fill:#d1b223;}.cls-9{stroke:#ff6822;stroke-width:2.24px;}.cls-24{fill:#333030;}.cls-10{stroke-dasharray:0 0 3.79 11.36;}.cls-25{fill:#eb975a;}.cls-26{fill:#e2d6d6;}.cls-26,.cls-27,.cls-28,.cls-29{mix-blend-mode:multiply;}.cls-30{fill:#4c7ed6;}.cls-31{fill:#3d3a3a;}.cls-11{stroke-dasharray:0 0 3.92 11.76;}.cls-32{fill:#8f3b14;}.cls-33{fill:#a5b9f6;}.cls-4{opacity:.35;}.cls-12{stroke-dasharray:0 0 4 12;}.cls-34{fill:#e0d4d4;}.cls-35{fill:#f2e5e5;}.cls-36{fill:#ff4d2c;}.cls-37{fill:#fbe5c6;}.cls-27{fill:#a9b3d1;}.cls-28{fill:#eee1e1;}.cls-38{fill:#21103f;}.cls-39{opacity:.25;}</style></defs><g class="cls-17"><g id="Layer_2"><g id="BACKGROUND"><g><g><path class="cls-15" d="M126.18,241.45c-4.11,1.38-9.18,2.15-14.78-1.17-6.01-3.57-9.96-10.3-13.4-16.49-4.52-8.12-8.68-14.97-16.54-19.26-5.67-3.09-11.7-4.81-17.09-9.87-6.27-5.89-9.24-14.17-10.21-21.07-1.12-8.04,.07-15.33-2.65-23.9-1.65-5.19-4.5-9.77-8.8-13.78-3.11-2.9-6.45-5.3-9.54-8.23-9.98-9.43-13.15-22.63-8-28.66,3.25-7.1,12.37-8.53,22.46-1.48,8.07,5.64,12.56,14.59,18.31,22.64,6.22,8.71,12.93,12.22,20.81,15.29,5.36,2.09,11.07,4.12,16.26,8.69,5.22,4.59,8.41,10.77,11,16.77,3.17,7.33,5.96,15.92,12.65,21.65,3.59,3.07,7.53,4.87,11.1,8.09,2.42,2.19,4.56,4.83,6.33,7.63,9.55,15.07,5.69,28.29-1.84,34.73-4.5,3.86-10.27,6.46-16.07,8.41Z"/><path class="cls-18" d="M41.06,108.44c8.52,12.24,17.1,24.44,25.73,36.61-5.42-2.83-10.83-5.66-16.25-8.48-1.04-.54-1.72,1.15-.69,1.68l18.72,9.77c.15,.08,.29,.1,.42,.1,7.25,10.2,14.55,20.36,21.88,30.51-9.74-3.2-19.48-6.41-29.23-9.61-1.11-.36-1.81,1.32-.69,1.68,10.4,3.42,20.8,6.84,31.19,10.26,.16,.05,.3,.05,.44,.03,6.8,9.4,13.65,18.75,20.52,28.1-8-2.97-16-5.94-24-8.91-1.1-.41-1.79,1.28-.69,1.68,8.88,3.3,17.76,6.59,26.63,9.89,4.6,6.26,9.22,12.51,13.84,18.75l-24.08-9.22c-1.09-.42-1.79,1.27-.69,1.68,8.12,3.11,16.24,6.21,24.36,9.32,.55,.21,.97-.12,1.14-.54,.08,.04,.17,.06,.26,.08,5.33,7.19,10.69,14.37,16.07,21.52,.71,.94,2.14-.19,1.43-1.12-5.44-7.24-10.86-14.5-16.25-21.77,1.95-8.52,3.38-17.12,4.28-25.82,.12-1.16-1.69-1.39-1.81-.22-.84,8.11-2.15,16.13-3.91,24.09-4.31-5.81-8.61-11.63-12.9-17.46,.01-.33-.15-.65-.55-.8l-.05-.02c-.2-.27-.4-.55-.6-.82,.98-8.78,1.96-17.56,2.95-26.35,.13-1.16-1.68-1.39-1.81-.22-.91,8.13-1.82,16.26-2.73,24.39-6.79-9.24-13.56-18.49-20.28-27.78,.96-9.49,1.92-18.98,2.89-28.47,.12-1.16-1.69-1.39-1.81-.22-.89,8.83-1.79,17.65-2.68,26.48-7.45-10.31-14.87-20.64-22.24-31.01,.1-.12,.17-.26,.2-.45l1.61-13.65c.14-1.16-1.67-1.39-1.81-.22-.48,4.1-.97,8.2-1.45,12.3-8.7-12.25-17.34-24.55-25.93-36.88-.67-.96-2.1,.16-1.43,1.12Z"/></g><path class="cls-15" d="M91.51,276.58c-9.5-2.88-19.15-5.79-29.16-6.21-10.01-.42-20.61,1.97-27.76,8.39-7.15,6.42-9.74,17.38-4.23,24.98,6.56,9.04,20.44,9.98,32.34,10.33,16.66,.48,35.39,2.54,45.54,14.54,5.2,6.15,7.36,14.17,13.03,19.97,9.69,9.92,26.71,10.44,40.85,7.07,14.14-3.37,27.43-9.84,41.93-11.45,16.18-1.79,32.28,2.62,48.4,4.74,55.43,7.29,111.61-8.26,145.55-48.96,4.99-5.99,9.66-13.72,6.52-20.66-4-8.82-14.22-15.19-24.7-14.63-25.63,1.36-51.41,2.11-76.94-.25-22.84-2.11-45.13-7.55-67.79-10.85-53.73-7.81-92.08,6.72-143.57,22.98"/><g><g><path class="cls-33" d="M349.82,233.12c2.52-6.01,5.08-12.3,4.61-18.8-.44-6.02-.53-12.73-2.39-18.47-1.85-5.75-2.43-11.85-2.07-17.88,1.13-18.9,9.12-18.12,12.13-17.18,2.96,.93,4.73,3.71,5.64,8.51,.73,3.86,.87,22.44,6.36,18.83,6.36-4.18,3.18-23.11,3.27-29.59,.14-9.7,2.44-20.4,8.65-28.09,3.06-3.79,7.94-6.98,12.59-5.52,2.78,.87,4.86,3.25,6.21,5.83,4.07,7.78,2.55,16.76,.51,24.9-.85,3.4-9.54,19.85-.7,17.02,2.11-.68,17.97-17.61,22-3.23,1.42,5.06-3.53,11.25-11.67,19.29-5.08,5.02-24.58,19.09-22.63,24.63,1.95,5.54,12.27-5.39,12.52,5.45,.14,6.07-7.01,11.57-11.97,14.64-2.36,1.46-5,2.44-7.26,4.05-2.68,1.91-5.68,5.99-2.94,9.09,1.2,1.35,3.19,1.82,4.34,3.21,1.17,1.41,1.2,3.53,.48,5.22-.72,1.69-2.06,3.03-3.47,4.22-8.98,7.62-21.26,10.54-33.04,10.04-11.77-.5-23.18-4.12-34.2-8.3"/><g class="cls-39"><path class="cls-8" d="M394.52,135.72s-2.39,64.05-34.14,108.66"/><path class="cls-8" d="M418.07,174.06s-18.54,19.71-35.52,24.76"/><path class="cls-8" d="M360.1,169.03c.41,9.95,3.76,37.38,15.05,49.12"/><path class="cls-8" d="M397.41,222.04s-7.18,8.44-32.35,15.3"/><path class="cls-8" d="M382.29,252.29s-12.87,4.37-25.71-.73"/></g></g><path class="cls-33" d="M333.84,265.12h-53.35c-10.41,0-8.72-12.34,20.24-6.85-7.1-3.25-7.15-7.6-6.54-8.76,.55-1.07,2.58-1.75,3.78-1.65,3.68,.32,6.48,2.57,9.71,4.38-5.84-3.8-9.47-10.77-9.23-17.73,.07-1.91,.48-3.97,1.89-5.27,1.58-1.46,4.17-2.43,6.28-2.01,3.91,.78,11.09,7.3,13.96,10.07-14.59-13.42-20.15-34.57-10.81-39.4,15.73-8.12,27.61,37.89,27.61,37.89,0,0-7.82-34.58,5.3-34.78,13.12-.2,2.45,40.17,2.45,40.17"/></g><g><g><path class="cls-33" d="M72.68,254.53c-2.37-5.67-4.79-11.6-4.34-17.73,.42-5.68,.5-12.01,2.25-17.42,1.75-5.42,2.29-11.18,1.95-16.87-1.06-17.83-8.6-17.09-11.44-16.2-2.79,.88-4.46,3.5-5.32,8.03-.69,3.64-.82,21.16-6,17.76-6-3.94-3-21.79-3.09-27.91-.13-9.15-2.3-19.24-8.16-26.49-2.89-3.57-7.48-6.58-11.87-5.21-2.63,.82-4.59,3.06-5.86,5.5-3.84,7.34-2.4,15.81-.48,23.48,.8,3.21,8.99,18.73,.66,16.05-1.99-.64-16.95-16.61-20.75-3.05-1.34,4.78,3.33,10.61,11,18.19,4.79,4.73,23.18,18,21.34,23.23-1.84,5.23-11.57-5.08-11.81,5.14-.13,5.73,6.61,10.91,11.29,13.8,2.22,1.38,4.71,2.3,6.84,3.82,2.53,1.8,5.36,5.65,2.77,8.58-1.13,1.28-3.01,1.71-4.1,3.03-1.11,1.33-1.13,3.33-.45,4.92,.68,1.59,1.95,2.86,3.27,3.98,8.47,7.19,20.06,9.94,31.16,9.47,11.1-.47,21.86-3.88,32.25-7.83"/><g class="cls-39"><path class="cls-8" d="M30.53,162.67s2.25,60.41,32.19,102.49"/><path class="cls-8" d="M8.31,198.83s17.49,18.59,33.5,23.36"/><path class="cls-8" d="M62.98,194.09c-.38,9.38-3.55,35.26-14.2,46.33"/><path class="cls-8" d="M27.8,244.08s6.77,7.96,30.51,14.43"/><path class="cls-8" d="M42.05,272.61s12.14,4.12,24.25-.69"/></g></g><path class="cls-33" d="M87.75,284.71h50.32c9.82,0,8.22-11.64-19.09-6.46,6.7-3.06,6.74-7.16,6.17-8.26-.52-1.01-2.44-1.65-3.56-1.55-3.47,.3-6.11,2.43-9.16,4.13,5.51-3.58,8.93-10.15,8.71-16.72-.06-1.81-.45-3.74-1.78-4.97-1.49-1.38-3.93-2.29-5.92-1.9-3.69,.73-10.46,6.89-13.16,9.5,13.76-12.66,19-32.61,10.19-37.16-14.83-7.66-26.04,35.74-26.04,35.74,0,0,7.38-32.61-5-32.8-12.37-.19-2.31,37.88-2.31,37.88"/></g><g><g><path class="cls-33" d="M192.7,178.18c-2.59-6.19-5.23-12.66-4.74-19.35,.45-6.2,.55-13.11,2.46-19.02,1.91-5.92,2.5-12.21,2.13-18.41-1.16-19.46-9.39-18.66-12.49-17.69-3.05,.96-4.87,3.82-5.81,8.77-.76,3.97-.9,23.1-6.55,19.39-6.55-4.3-3.27-23.79-3.37-30.47-.14-9.99-2.51-21-8.91-28.92-3.15-3.9-8.17-7.18-12.96-5.69-2.87,.89-5.01,3.34-6.4,6.01-4.2,8.01-2.63,17.26-.52,25.63,.88,3.5,9.82,20.44,.72,17.52-2.17-.7-18.5-18.13-22.65-3.33-1.46,5.21,3.63,11.58,12.01,19.86,5.23,5.17,25.31,19.65,23.3,25.36-2.01,5.71-12.63-5.55-12.9,5.61-.15,6.25,7.22,11.91,12.32,15.07,2.43,1.5,5.15,2.52,7.47,4.17,2.76,1.97,5.85,6.17,3.02,9.36-1.24,1.39-3.28,1.87-4.47,3.3-1.21,1.46-1.23,3.63-.49,5.37,.74,1.74,2.13,3.12,3.57,4.35,9.25,7.85,21.9,10.85,34.02,10.33,12.12-.51,23.87-4.24,35.21-8.54"/><g class="cls-39"><path class="cls-8" d="M146.68,77.9s2.46,65.95,35.15,111.89"/><path class="cls-8" d="M122.42,117.38s19.09,20.3,36.57,25.5"/><path class="cls-8" d="M182.11,112.2c-.42,10.24-3.87,38.49-15.5,50.58"/><path class="cls-8" d="M143.7,166.78s7.39,8.69,33.31,15.76"/><path class="cls-8" d="M159.26,197.92s13.25,4.5,26.47-.75"/></g></g><path class="cls-33" d="M209.15,211.13h54.93c10.72,0,8.98-12.71-20.84-7.06,7.32-3.34,7.36-7.82,6.74-9.02-.57-1.1-2.66-1.8-3.89-1.7-3.79,.33-6.67,2.65-9.99,4.51,6.01-3.91,9.75-11.09,9.51-18.25-.07-1.97-.49-4.08-1.94-5.42-1.63-1.5-4.29-2.5-6.46-2.07-4.02,.8-11.42,7.52-14.37,10.37,15.02-13.82,20.75-35.6,11.13-40.56-16.19-8.36-28.43,39.01-28.43,39.01,0,0,8.05-35.6-5.46-35.81-13.51-.21-2.53,41.36-2.53,41.36"/></g><g><path class="cls-14" d="M68.44,99.72c.97,0,.97-1.5,0-1.5s-.97,1.5,0,1.5h0Z"/><path class="cls-14" d="M75.23,94.77c.97,0,.97-1.5,0-1.5s-.97,1.5,0,1.5h0Z"/><path class="cls-14" d="M200.63,144.81c.97,0,.97-1.5,0-1.5s-.97,1.5,0,1.5h0Z"/><path class="cls-14" d="M64.73,88.6c.97,0,.97-1.5,0-1.5s-.97,1.5,0,1.5h0Z"/><path class="cls-14" d="M357.52,229.43c.97,0,.97-1.5,0-1.5s-.97,1.5,0,1.5h0Z"/><path class="cls-14" d="M364.32,236.23c.97,0,.97-1.5,0-1.5s-.97,1.5,0,1.5h0Z"/><path class="cls-14" d="M349.49,242.41c.97,0,.97-1.5,0-1.5s-.97,1.5,0,1.5h0Z"/><path class="cls-14" d="M330.96,54.62c.97,0,.97-1.5,0-1.5s-.97,1.5,0,1.5h0Z"/><path class="cls-14" d="M341.46,57.09c.97,0,.97-1.5,0-1.5s-.97,1.5,0,1.5h0Z"/><path class="cls-14" d="M331.58,65.12c.97,0,.97-1.5,0-1.5s-.97,1.5,0,1.5h0Z"/><path class="cls-14" d="M215.45,110.83c.97,0,.97-1.5,0-1.5s-.97,1.5,0,1.5h0Z"/><path class="cls-14" d="M217.31,100.95c.97,0,.97-1.5,0-1.5s-.97,1.5,0,1.5h0Z"/><path class="cls-14" d="M224.72,111.45c.97,0,.97-1.5,0-1.5s-.97,1.5,0,1.5h0Z"/><path class="cls-14" d="M212.36,280.7c.97,0,.97-1.5,0-1.5s-.97,1.5,0,1.5h0Z"/><path class="cls-14" d="M217.92,288.73c.97,0,.97-1.5,0-1.5s-.97,1.5,0,1.5h0Z"/><path class="cls-14" d="M368.64,291.82c.97,0,.97-1.5,0-1.5s-.97,1.5,0,1.5h0Z"/><path class="cls-14" d="M348.26,127.51c.97,0,.97-1.5,0-1.5s-.97,1.5,0,1.5h0Z"/><path class="cls-14" d="M80.79,66.98c.97,0,.97-1.5,0-1.5s-.97,1.5,0,1.5h0Z"/><path class="cls-14" d="M157.39,24.36c.97,0,.97-1.5,0-1.5s-.97,1.5,0,1.5h0Z"/><path class="cls-14" d="M212.36,1.5c.97,0,.97-1.5,0-1.5s-.97,1.5,0,1.5h0Z"/><path class="cls-14" d="M232.13,16.32c.97,0,.97-1.5,0-1.5s-.97,1.5,0,1.5h0Z"/><path class="cls-14" d="M70.91,284.41c.97,0,.97-1.5,0-1.5s-.97,1.5,0,1.5h0Z"/><path class="cls-14" d="M42.49,263.41c.97,0,.97-1.5,0-1.5s-.97,1.5,0,1.5h0Z"/><path class="cls-14" d="M44.97,267.73c.97,0,.97-1.5,0-1.5s-.97,1.5,0,1.5h0Z"/><path class="cls-14" d="M40.02,270.82c.97,0,.97-1.5,0-1.5s-.97,1.5,0,1.5h0Z"/><path class="cls-14" d="M327.26,321.47c.97,0,.97-1.5,0-1.5s-.97,1.5,0,1.5h0Z"/><path class="cls-14" d="M68.44,217.08c.97,0,.97-1.5,0-1.5s-.97,1.5,0,1.5h0Z"/><path class="cls-14" d="M57.94,336.3c.97,0,.97-1.5,0-1.5s-.97,1.5,0,1.5h0Z"/><path class="cls-14" d="M197.54,328.27c.97,0,.97-1.5,0-1.5s-.97,1.5,0,1.5h0Z"/><path class="cls-14" d="M385.32,336.3c.97,0,.97-1.5,0-1.5s-.97,1.5,0,1.5h0Z"/><path class="cls-14" d="M231.51,3.35c.97,0,.97-1.5,0-1.5s-.97,1.5,0,1.5h0Z"/><path class="cls-14" d="M285.25,90.45c.97,0,.97-1.5,0-1.5s-.97,1.5,0,1.5h0Z"/><path class="cls-14" d="M303.78,77.48c.97,0,.97-1.5,0-1.5s-.97,1.5,0,1.5h0Z"/><path class="cls-14" d="M24.89,125.04c.97,0,.97-1.5,0-1.5s-.97,1.5,0,1.5h0Z"/><path class="cls-14" d="M391.5,107.75c.97,0,.97-1.5,0-1.5s-.97,1.5,0,1.5h0Z"/></g><g><path class="cls-15" d="M217.65,87.02c45.6,26.47,77.5,73.63,85.15,125.79,.23,1.6-3.11-.12-3.41-.23-51.58-18.79-85.65-69.51-83.55-124.36,.03-.86,.92-1.71,1.81-1.19Z"/><path class="cls-18" d="M222.15,101.82c20.66,28.97,41.31,57.94,61.97,86.91-9.48-5.6-18.95-11.19-28.43-16.79-.97-.57-1.95,.88-.98,1.45,10.64,6.28,21.27,12.56,31.91,18.85,6.36,8.92,12.71,17.83,19.07,26.75,.66,.92,1.98-.23,1.33-1.14l-18.74-26.29c-.02-.23-.13-.45-.39-.6l-.07-.04c-21.45-30.08-42.89-60.16-64.34-90.24-.66-.92-1.98,.23-1.33,1.14Z"/><path class="cls-18" d="M234.51,139.09c-.94-.62-1.92,.83-.98,1.45,8.74,5.77,17.49,11.54,26.23,17.31,.94,.62,1.92-.83,.98-1.45-8.74-5.77-17.49-11.54-26.23-17.31Z"/><path class="cls-18" d="M241.45,110.23c.87,6.35,1.74,12.7,2.61,19.05-7.46-5.61-14.92-11.22-22.37-16.84-.9-.68-1.88,.78-.98,1.45,7.88,5.93,15.76,11.86,23.64,17.79,.86,.65,1.77-.64,1.07-1.35,.28-.17,.49-.47,.43-.89l-2.68-19.56c-.15-1.12-1.87-.78-1.72,.34Z"/><path class="cls-18" d="M261.66,132.84l-.95,21.95c-.05,1.12,1.7,1.24,1.75,.11l.95-21.95c.05-1.12-1.7-1.24-1.75-.11Z"/><path class="cls-18" d="M282.51,167.93c1.47,6.58,2.09,13.25,1.86,19.99-.04,1.12,1.71,1.24,1.75,.11,.24-6.89-.38-13.71-1.88-20.44-.25-1.1-1.97-.77-1.72,.34Z"/></g><g><path class="cls-15" d="M251.65,222.79c-3.53-4.45-6.73-10.35-5.15-18.71,1.71-8.99,8.24-16.85,14.33-23.85,7.99-9.18,14.57-17.36,16.33-28.95,1.28-8.35,.71-16.55,4.53-25.44,4.45-10.35,13.33-17.69,21.39-21.96,9.4-4.97,18.9-6.75,28.24-13.92,5.65-4.34,10.03-9.9,13.05-16.98,2.18-5.12,3.66-10.3,5.88-15.41,7.17-16.49,22-26.28,31.72-22.62,10.19,.84,16.01,11.43,11.83,26.99-3.35,12.45-12.37,21.96-19.72,32.64-7.95,11.54-9.28,21.36-9.56,32.44-.19,7.54-.14,15.47-3.45,23.89-3.32,8.47-9.52,15.15-15.75,21.01-7.61,7.17-16.94,14.43-21.01,25.23-2.17,5.79-2.64,11.45-5.02,17.27-1.62,3.96-3.91,7.76-6.57,11.19-14.3,18.47-32.29,19.62-43.58,13.22-6.75-3.82-12.53-9.76-17.52-16.04Z"/><path class="cls-18" d="M377.48,58.71c-11.27,15.95-22.48,31.95-33.6,48,1.07-7.93,2.14-15.86,3.2-23.79,.2-1.52-2.18-1.61-2.38-.1l-3.69,27.41c-.03,.22,0,.4,.07,.56-9.33,13.47-18.58,26.99-27.81,40.54-.4-13.42-.79-26.85-1.19-40.27-.05-1.53-2.43-1.64-2.38-.1,.42,14.33,.85,28.65,1.27,42.98,0,.22,.07,.4,.16,.56-8.54,12.56-17,25.17-25.45,37.78,.09-11.17,.18-22.35,.28-33.52,.01-1.53-2.37-1.64-2.38-.1-.1,12.4-.21,24.8-.31,37.2-5.66,8.45-11.29,16.92-16.92,25.4l.61-33.76c.03-1.53-2.35-1.64-2.38-.1-.21,11.38-.41,22.76-.62,34.14-.01,.77,.57,1.14,1.17,1.16,0,.12,0,.24,.02,.36-6.48,9.77-12.93,19.56-19.34,29.38-.84,1.29,1.18,2.55,2.02,1.26,6.48-9.93,13.01-19.83,19.56-29.71,11.36-1.4,22.58-3.47,33.69-6.24,1.49-.37,.96-2.7-.54-2.32-10.36,2.59-20.82,4.54-31.4,5.93,5.24-7.9,10.49-15.79,15.75-23.66,.41-.13,.74-.47,.74-1.04v-.07c.25-.37,.5-.74,.75-1.11,11.25-2.7,22.5-5.41,33.75-8.11,1.49-.36,.96-2.68-.54-2.32-10.41,2.5-20.83,5.01-31.24,7.51,8.36-12.47,16.72-24.94,25.17-37.36,12.11-3.05,24.23-6.09,36.34-9.14,1.49-.37,.96-2.7-.54-2.32-11.27,2.83-22.53,5.67-33.8,8.5,9.38-13.77,18.79-27.51,28.27-41.21,.19,.07,.4,.1,.64,.04l17.53-4.11c1.49-.35,.96-2.67-.54-2.32-5.26,1.23-10.53,2.47-15.79,3.7,11.21-16.17,22.49-32.3,33.85-48.36,.89-1.26-1.14-2.51-2.02-1.26Z"/></g></g></g><g id="OBJECTS"><g><g><polygon class="cls-22" points="360.9 258.75 250.26 323.21 249.06 298.63 359.78 235.83 360.9 258.75"/><polygon class="cls-20" points="249.06 298.63 134.43 263.22 257.1 209.62 359.78 235.83 249.06 298.63"/><polygon class="cls-3" points="135.62 287.52 250.25 322.93 249.06 298.63 134.43 263.22 135.62 287.52"/><polygon class="cls-22" points="134.55 265.71 249.18 301.11 249.06 298.63 134.43 263.22 134.55 265.71"/><polygon class="cls-22" points="135.63 287.8 250.26 323.21 250.14 320.72 135.51 285.31 135.63 287.8"/><polygon class="cls-32" points="242.04 318.29 250.14 320.72 249.18 301.11 241.07 298.61 242.04 318.29"/><polygon class="cls-32" points="145.61 283.15 149.48 280.92 153.71 285.59 153.37 278.75 145.26 276.25 145.61 283.15"/></g><g><polygon class="cls-3" points="345.57 227.59 248.52 284.03 247.49 262.8 344.64 208.51 345.57 227.59"/><polygon class="cls-30" points="344.73 210.36 247.59 265.01 247.49 262.8 344.64 208.51 344.73 210.36"/><polygon class="cls-30" points="345.64 228.96 248.54 284.32 248.43 282.12 345.55 227.11 345.64 228.96"/><polygon class="cls-26" points="345.8 232.21 249.24 287.9 248.54 284.37 341.9 231.07 345.8 232.21"/><polygon class="cls-1" points="344.64 208.51 254.43 185.94 148.08 232.36 152.71 238.6 152.48 233.83 247.49 262.8 344.64 208.51"/><path class="cls-3" d="M151.91,254.43l96.08,29.68c.26,.08,.53-.11,.52-.37l-1-20.45-94.01-29.04c-2.4-.74-4.85,.98-4.74,3.32l.68,13.84c.07,1.38,1.05,2.58,2.46,3.02Z"/><polygon class="cls-30" points="233.38 275.47 236.72 273.54 240.37 277.57 240.08 266.11 233.08 263.95 233.38 275.47"/><polygon class="cls-30" points="157.1 255.94 149.12 253.49 148.08 232.36 156.07 234.81 157.1 255.94"/><polygon class="cls-30" points="150.83 254.06 149.12 253.49 148.08 232.36 149.8 232.93 150.83 254.06"/><polygon class="cls-30" points="148.19 234.51 247.59 264.95 247.49 262.8 148.08 232.36 148.19 234.51"/><polygon class="cls-30" points="149.09 253.53 248.58 284.29 248.48 282.15 148.97 251.5 149.09 253.53"/><polygon class="cls-26" points="149.49 256.75 249.24 287.9 248.47 284.29 153.49 254.87 149.49 256.75"/></g></g><g><g><g><path class="cls-31" d="M209.12,217.8c3.43,4.67-.48,17.26-10.04,31.2-8.8,12.84-22.39,26.82-39.46,36.79-35.6,20.8-70.73,19.92-77.4,10.53l-33.18-48.69,128.92-75.33s30.91,45.16,31.16,45.5Z"/><g><polygon class="cls-24" points="206.39 154.18 135.98 249.53 132.21 244 202.82 148.95 206.39 154.18"/><polygon class="cls-31" points="202.83 148.95 164.31 200.8 132.21 244 26.6 267.76 22.11 268.48 97.1 174.36 202.83 148.95"/><polygon class="cls-24" points="25.5 273.45 135.99 249.55 132.21 244 22.11 268.48 25.5 273.45"/></g></g><path class="cls-26" d="M202.83,148.95l-38.52,51.85-2.1,2.85c6.25-40.86-65.1-29.29-65.1-29.29l105.73-25.41Z"/><path class="cls-28" d="M209.12,217.8c3.43,4.67-.48,17.26-10.04,31.2,0,0,2.98-19.13-5.07-30.93-10.7-15.7-24.85-13.32-24.85-13.32l16-21.75s23.7,34.46,23.95,34.8Z"/></g><path class="cls-20" d="M119.77,202.75c.39,.57,.39,1.32,.06,2.14-.56,1.42-2.11,3.05-4.27,4.31-3.4,1.99-7.02,2.32-8.1,.74-.79-1.16,.02-3.02,1.85-4.71,.66-.62,1.46-1.21,2.36-1.74,3.4-1.99,7.02-2.32,8.1-.74Z"/><path class="cls-9" d="M113.62,206.35l-34.46,45.43s-6.9,6.5-12.33,23.12"/><path class="cls-22" d="M119.77,202.75c.39,.57,.39,1.32,.06,2.14-4.59-2.47-8.69-.73-10.52,.34,.66-.62,1.46-1.21,2.36-1.74,3.4-1.99,7.02-2.32,8.1-.74Z"/><g><g><path class="cls-20" d="M76.54,294.18c2.75,11.2,2.85,20.72,.24,21.27-2.61,.55-6.96-8.08-9.7-19.28s-2.85-20.72-.24-21.27c.73-.15,1.59,.4,2.5,1.53,2.4,2.92,5.22,9.67,7.2,17.76Z"/><path class="cls-22" d="M76.54,294.18c2.75,11.2,2.85,20.72,.24,21.27,.13-24.8-9.88-36.91-9.88-36.91l2.44-2.11c2.4,2.92,5.22,9.67,7.2,17.76Z"/></g><g><path class="cls-20" d="M71.75,274.63c.41,1.67-.24,3.34-1.55,4.39-.58,.47-1.29,.82-2.1,.99-2.61,.55-5.21-.97-5.81-3.39-.4-1.63,.21-3.25,1.45-4.31,.6-.51,1.35-.89,2.21-1.07,2.61-.55,5.21,.97,5.81,3.39Z"/><path class="cls-22" d="M71.75,274.63c.41,1.67-.24,3.34-1.55,4.39-.08-.17-.15-.36-.2-.56-1.62-5.84-5.32-6.16-6.26-6.15,.6-.51,1.35-.89,2.21-1.07,2.61-.55,5.21,.97,5.81,3.39Z"/></g></g></g><g><rect class="cls-16" x="334.71" y="148.11" width="15.61" height="122.12" transform="translate(-46.25 109.51) rotate(-17.03)"/><rect class="cls-31" x="339.51" y="148.28" width="1.73" height="122.59" transform="translate(-46.46 108.91) rotate(-17.03)"/><rect class="cls-31" x="343.65" y="147.01" width="1.73" height="122.6" transform="translate(-45.91 110.06) rotate(-17.03)"/><rect class="cls-31" x="352.55" y="267.08" width="15.98" height="3.11" transform="translate(-62.87 117.4) rotate(-17.03)"/><path class="cls-20" d="M353.81,270h15.98v1.6c0,2.16-1.75,3.91-3.91,3.91h-8.17c-2.16,0-3.91-1.75-3.91-3.91v-1.6h0Z" transform="translate(-64.03 117.95) rotate(-17.03)"/><polygon class="cls-37" points="332.1 148.5 317.17 153.07 319.82 142.62 320.99 137.99 324.41 141.21 332.1 148.5"/><polygon class="cls-31" points="324.41 141.21 319.82 142.62 320.99 137.99 324.41 141.21"/></g><g><path class="cls-23" d="M98.19,80.57h0c.77-1.24,.39-2.87-.85-3.64l-15.4-9.58c-1.24-.77-2.87-.39-3.64,.85l-1.4,2.24-1.13,1.81-22.51,36.17c-.77,1.24-.39,2.87,.85,3.64l53.49,33.29c1.24,.77,2.87,.39,3.64-.85l22.24-35.74c.77-1.24,.39-2.87-.85-3.64l-33.6-20.91c-1.24-.77-1.62-2.4-.85-3.64Z"/><path class="cls-16" d="M107.6,145.35l-53.49-33.29c-1.24-.77-1.62-2.4-.85-3.64l26.2-33.28c.77-1.24,2.4-1.62,3.64-.85l53.49,33.29c1.24,.77,1.62,2.4,.85,3.64l-26.2,33.28c-.77,1.24-2.4,1.62-3.64,.85Z"/></g><g><g class="cls-29"><path class="cls-35" d="M232.3,206.96c-2.39-1.88-6.26,.54-6.59,3.56-.34,3.02,1.74,5.82,4.16,7.66,7.19,5.48,17.08,5.16,26.1,4.58l16.35-1.04c4.21-.27,9-.85,11.43-4.3,2.8-3.98,.5-10.03-3.77-12.35-4.27-2.32-9.64-1.59-14.05,.46-3.88,1.8-7.46,4.6-11.71,5.04-7.57,.78-18.02-7.01-25.01-4.01"/></g><g><path class="cls-22" d="M294.53,98.77c-1.5,.35-6.89,.43-11.9,.83-.98-2.8-2.51-8.92-4.68-16.67-.44-1.56-2.63-4.37-5.08-5.46-1.52-.67-3.81,.57-3.15,3.53,.37,1.66,.83,3.99,2.72,9.37,2.66,7.54,4.58,11.15,5.78,12.94,.15,.31,.36,.59,.61,.83,.13,.15,.28,.26,.45,.34,.45,.28,1,.45,1.62,.43,4.62-.18,4.31-.33,10.24-2.1,4.12-1.23,3.45-.33,4.27-1.39,.67-.86,.32-2.94-.89-2.65Z"/><path class="cls-20" d="M256.05,90.76c1.03,3.85,1.47,7.83,1.86,11.79,.28,2.9-.05,5.89-.63,8.74-.36,1.73-.82,3.43-1.33,5.12-.19,.64-1.83,5.79-1.93,6.35,0,0,22.6,1.55,23.92,1.64,.09-4.7-4.24-19.79,.02-29.08,2.95-6.43-.36-6.86-2.24-12.51-.46-1.38-3.8-4.16-5.15-4.6-.72-.23-1.46-.35-2.2-.46-4.03-.6-12.46-2.89-13.75,2.81-.35,1.55,.25,6.49,.81,8.17,.22,.68,.43,1.36,.61,2.05Z"/><path class="cls-21" d="M276.91,171.7c.05-.48,.07-.93,.06-1.35,.09-.71,.14-1.5,.13-2.4-.03-3.62,.43-19.08,.67-28.32h0c.53-8.07,.17-15.25,.17-15.25l-23.92-1.64c-.94,3.5-1.33,6.42-1.44,8.74-.65,3.61-4.23,29.68-5.19,34.46-.05,.25-.09,.48-.13,.71-5.19,7.78-9.09,37.37-10.06,42.49-.13,.68,.25,.63,.66,.58,1.2-.15,.77-1.29,2.45-1.07,.89,.11,1.06,1.36,1.06,1.36,2.33-6.86,10.12-31,13.67-38.24,.54-1.09,.81-2.08,.92-2.97,2.86-7.97,7.39-21.7,8.67-27.62,.68,6.78,2.28,22.1,3.67,29.26-3.14,9.7,.13,30.15-.37,41.77,1.37-1.96,2.57-2.38,3.11-2.3,.88,.13,1.32,.87,1.32,.87,.88-15.6,3.67-31.06,4.56-39.1Z"/><path class="cls-38" d="M272.65,210.78c.24,.55,1.46,1.87,3.21,2.8,1.75,.93,5.57,1.57,3.39,2.14-2.18,.57-4.64-.03-5.88-.32-1.24-.29-2.46-.4-3.95-.51-1.96-.15-1.96-.27-1.55-2.46,.57-3.01,4.01-3.43,4.78-1.65Z"/><path class="cls-38" d="M241.35,209.59c.24,.55,.35,3.14,2.1,4.07,1.75,.93,5.57,1.57,3.39,2.14-2.18,.57-4.64-.03-5.88-.32-1.25-.29-1.35-1.67-2.84-1.78-1.96-.15-1.96-.27-1.55-2.46,.57-3.01,4.01-3.43,4.78-1.65Z"/><path class="cls-36" d="M259.67,87.74c.33,.19,.66,.39,1,.58l-1.95,6.03c.29-1.96,.61-4.18,.96-6.61Z"/><path class="cls-19" d="M261.98,67.16c-.05,.26-.84,5.76-1.2,9.99-.18,2.08,1.19,4.15,2.68,4.31,.02,0,.04,0,.07,0,1.47,.1,3.32-1.63,3.33-3.68,.02-3.71,.45-7.48,.46-7.54l-5.34-3.09Z"/><path class="cls-25" d="M259.37,62.96c.15,4.75,.22,5.81,2.15,7.88,1.93,2.07,4.82,3.16,7.06,3.31,2.42,.17,4.38-2.26,5.06-4.22,.71-2.03,1.7-6.84,1.37-12.05-.16-2.64-3.18-6.04-6.52-6.27-3.33-.23-9.49-.26-9.12,11.35Z"/><path class="cls-2" d="M275.01,55.18c-.5-1.06-2.14-2.73-3.51-3.35-2.64-1.91-5.91-1.84-8.51-.99-.84-.33-1.71-.62-2.59-.87l.06-.11c-.05-.03-5.09-2.75-9.16-.95-2.26,1-3.8,3.19-4.58,6.51l.12,.03c-.55,1.78-.57,3.72,.08,5.47,.66,1.75,1.87,3.26,2.52,5.01,1.4,3.83-.05,7.86-3.7,9.68,1.27,1.09,3.28,.76,4.68-.15,1.41-.91,2.32-2.91,3.61-3.98,2.16-1.8,2.02-7.13,4.82-6.93l4.25-2.89c3.42-.75,7.67-1.73,10.02-3.64,.91,.63,1.69,1.28,1.93,2.12,.4,1.41,.93-2.91-.03-4.95Zm-24.33-4.69c-1.48,.85-2.63,2.18-3.36,3.71,.83-2.52,2.2-4.23,4.08-5.06,3.16-1.4,6.94,.02,8.36,.66-3.12-.78-6.34-.87-9.07,.69Z"/><path class="cls-25" d="M260.78,63.12c.56,1.68,.29,3.28-.59,3.57-.88,.29-2.04-.83-2.6-2.51-.56-1.68-.29-3.27,.59-3.57,.88-.29,2.04,.83,2.6,2.51Z"/><polygon class="cls-34" points="293.31 107.81 279.3 110.83 279.3 92.12 293.31 89.1 293.31 107.81"/><g><path class="cls-25" d="M274.33,101.44c1.13-.89,2.62-1.77,3.65-1.88,1.03-.11-.72,1.28-1.52,2.01-.8,.73-3.08,.62-2.13-.13Z"/><path class="cls-25" d="M275.88,101.41c2.92-.47,4.4-1.19,5.74-.68,1.34,.51-.59,2.38-1.59,2.7s-4.48,1.67-5.52,.99c-1.04-.68-.8-2.66,1.36-3Z"/></g><path class="cls-22" d="M273.97,101.32c-1.53,.28-10.73-.06-16.05,.08,.33-3.24,1.27-8.98,2.25-16.14,.22-1.6-.67-5.06-2.49-7.03-1.13-1.22-3.72-.99-4.29,1.98-.32,1.67-.83,3.99-1.23,9.68-.66,9.33-.1,13.34,.35,15.11,.1,.4,.36,.71,.7,.93,.51,.54,1.24,.91,2.13,.92,4.81,.04,6.58-.04,12.83-1.58,4.34-1.07,5.69-.07,6.59-1.14,.74-.87,.48-3.04-.8-2.8Z"/><path class="cls-25" d="M293.15,100c0-.83,.06-2.1,.46-3.24,.23-.65,.96-1.13,1.5-.54,.47,.51,1.28,2.58,.93,3.57-.29,.84-1.04,1.62-1.77,1.95-.73,.32-1.13-.38-1.12-1.73Z"/></g></g><g><polygon class="cls-1" points="338.68 92.58 331.59 86.3 372.83 74.87 358.47 109.71 346.9 99.35 342.09 103.78 338.68 92.58"/><polygon class="cls-27" points="372.83 74.87 346.9 99.35 342.09 103.78 338.68 92.58 372.83 74.87"/></g><g><polygon class="cls-20" points="124.07 16.91 128.51 8.54 85.87 12.28 111.53 39.88 118.73 26.13 124.79 28.59 124.07 16.91"/><polygon class="cls-27" points="85.87 12.28 118.73 26.13 124.79 28.59 124.07 16.91 85.87 12.28"/></g><g><path class="cls-13" d="M336.85,107.91c-.58,.33-1.15,.67-1.73,1.01"/><path class="cls-10" d="M325.44,114.86c-4.04,2.71-7.86,5.69-11.21,9.21-6.4,6.75-10.92,15.88-10,25.13,.55,5.59,3,10.79,5.05,16.02,2.05,5.23,3.74,10.89,2.69,16.41-.56,2.95-2.13,5.81-4.33,7.82"/><path class="cls-13" d="M302.69,192.11c-.64,.14-1.31,.21-1.99,.2"/></g><g><path class="cls-13" d="M131.75,33.94c.41,.52,.82,1.05,1.23,1.58"/><path class="cls-11" d="M139.38,45.36c1.08,2.22,1.92,4.54,2.39,6.99,1.32,6.93-1.25,15.11-7.64,18.11-8.53,4.01-17.93-2.6-25.8-7.79-10.53-6.94-22.39-11.87-34.74-14.44-8.86-1.84-18.35-2.42-26.73,1-9.66,3.94-16.65,12.8-20.65,22.44-4,9.64-5.39,20.13-6.74,30.47-.69,5.3-1.39,10.7-.56,15.98,.83,5.29,3.4,10.55,7.93,13.39,6.65,4.17,15.23,2.17,23.07,2.61,10.01,.55,19.7,5.58,25.92,13.44,4.59,5.8,7.24,13.08,7.61,20.46"/><path class="cls-13" d="M83.25,173.88c-.08,.66-.18,1.32-.29,1.98"/></g><g><path class="cls-13" d="M147.58,330.02c-.11-.67-.11-1.34,0-1.99"/><path class="cls-6" d="M156.26,321.01c4.23-.07,8.23,2.38,11.14,5.51,3.06,3.29,5.2,7.33,7.72,11.05,9.47,13.98,24.96,23.73,41.67,26.21,16.7,2.48,34.36-2.35,47.48-12.99,10.81-8.76,18.3-20.92,28.09-30.82,7.86-7.96,18.37-14.63,29.21-15.2"/><path class="cls-13" d="M327.56,305.11c.65,.11,1.31,.25,1.96,.41"/></g><path class="cls-12" d="M250.17,7.57c5.27-1.2,10.19,3.3,12.67,8.1,2.48,4.8,3.7,10.34,7.23,14.44,6.03,6.99,16.52,7.48,25.75,7.26,9.23-.22,19.61-.2,26.15,6.31"/><g><g><g><rect class="cls-31" x="177.48" y="69.85" width="2.05" height="25.94" transform="translate(46.46 -63.08) rotate(22.96)"/><path class="cls-1" d="M163.63,118.28h0c-2.65-1.12-3.89-4.18-2.77-6.83l9.4-22.18c1.12-2.65,4.18-3.89,6.83-2.77h0c2.65,1.12,3.89,4.18,2.77,6.83l-9.4,22.18c-1.12,2.65-4.18,3.89-6.83,2.77Z"/><circle class="cls-7" cx="193.63" cy="47.47" r="26.41" transform="translate(92.93 219.54) rotate(-73.44)"/></g><circle class="cls-5" cx="193.78" cy="47.03" r="22.55" transform="translate(9.16 122.38) rotate(-35.85)"/></g><ellipse class="cls-4" cx="190.61" cy="37.22" rx="8.88" ry="7.34"/></g></g></g></g></svg>