<?xml version="1.0" encoding="UTF-8"?><svg fill="#fff" id="Layer_2" xmlns="http://www.w3.org/2000/svg" viewBox="0 0 359.27 287.49"><g id="Layer_1-2"><g><path d="M179.38,47.91c-51.5,0-103.01,.02-154.51-.01C10.41,47.88-.32,37.15,0,23.22,.3,10.96,10.29,.69,22.57,.04c1-.05,1.99-.04,2.99-.04C128.33,0,231.08,0,333.84,0c12.6,0,22.18,7.21,24.77,18.56,3.4,14.9-7.54,29.04-22.85,29.29-11.59,.19-23.19,.05-34.79,.05-40.53,0-81.06,0-121.59,0Z"/><path d="M179.79,119.77c51.5,0,103.01-.02,154.51,.01,14.51,0,25.25,10.64,24.96,24.57-.26,12.28-10.18,22.57-22.47,23.28-.99,.06-1.99,.05-2.99,.05-102.76,0-205.52,0-308.28,0-12.8,0-22.38-7.27-24.92-18.83-3.24-14.73,7.68-28.72,22.81-29.02,8.6-.17,17.21-.04,25.81-.04,43.52,0,87.05,0,130.57,0Z"/><path d="M179.69,287.44c-51.63,0-103.26,.02-154.89-.01-14.43-.01-25.16-10.79-24.8-24.73,.31-12.11,10.13-22.32,22.25-23.11,.87-.06,1.75-.05,2.62-.05,103.13,0,206.27,0,309.4,0,11.93,0,21.48,7.11,24.21,17.87,3.84,15.13-7.17,29.76-22.79,29.97-14.34,.19-28.68,.05-43.02,.05-37.66,0-75.32,0-112.98,0Z"/></g></g></svg>