<?xml version="1.0" encoding="UTF-8"?><svg id="Layer_2" xmlns="http://www.w3.org/2000/svg" viewBox="0 0 35 35"><defs><style>.cls-1{fill:#fff;}</style></defs><g id="Layer_1-2"><g id="Layer_2-2"><polygon class="cls-1" points="23.48 17.06 13.28 17.06 15.97 14.56 15.37 13.92 11.52 17.5 15.37 21.08 15.97 20.44 13.27 17.94 23.48 17.94 23.48 17.06"/><path class="cls-1" d="M17.5,35C7.85,35,0,27.15,0,17.5S7.85,0,17.5,0s17.5,7.85,17.5,17.5-7.85,17.5-17.5,17.5ZM17.5,.89C8.34,.89,.89,8.34,.89,17.5s7.45,16.61,16.61,16.61,16.61-7.45,16.61-16.61S26.66,.89,17.5,.89Z"/></g></g></svg>