<?xml version="1.0" encoding="UTF-8"?><svg id="Layer_2" xmlns="http://www.w3.org/2000/svg" viewBox="0 0 16.31 16.3"><defs><style>.cls-1{fill:#fff;}</style></defs><g id="Layer_1-2"><path class="cls-1" d="M15.64,16.3h-.29c-.24-.07-.42-.22-.6-.4-1.35-1.36-2.71-2.71-4.06-4.07-.08-.08-.12-.09-.22-.02-1.55,1.12-3.26,1.52-5.15,1.18C2.79,12.53,.69,10.49,.15,7.97,.09,7.65,.06,7.32,0,7v-.89c0-.05,.02-.1,.03-.15,.05-.61,.19-1.19,.41-1.76C1.57,1.33,4.36-.33,7.43,.05c1.67,.21,3.06,.98,4.14,2.27,1.98,2.36,2.07,5.64,.26,8.13-.07,.1-.07,.15,.02,.23,.83,.82,1.65,1.65,2.48,2.47,.58,.58,1.16,1.15,1.73,1.74,.46,.46,.27,1.18-.35,1.37-.02,0-.05,.02-.07,.03ZM1.63,6.54c-.01,2.71,2.2,4.93,4.92,4.95,2.71,.02,4.94-2.2,4.95-4.92,.01-2.72-2.2-4.94-4.92-4.95-2.71,0-4.94,2.2-4.95,4.92Z"/></g></svg>