<?xml version="1.0" encoding="UTF-8"?><svg id="Layer_2" xmlns="http://www.w3.org/2000/svg" viewBox="0 0 18.26 18.24"><defs><style>.cls-1{fill:#002c2c;}</style></defs><g id="Layer_1-2"><g><path class="cls-1" d="M8.48,0h1.53c.17,.02,.34,.04,.51,.07,2.03,.33,3.78,1.18,5.2,2.69,2.11,2.25,2.92,4.91,2.39,7.94-.74,4.25-4.48,7.28-8.72,7.41-1.56,.05-3.03-.3-4.41-1.02-.11-.06-.22-.07-.34-.03-1.14,.3-2.28,.6-3.43,.89-.4,.1-.8,.24-1.21,.29v-.11c.41-1.49,.82-2.98,1.24-4.47,.03-.09,0-.16-.05-.23-.63-1.14-1-2.35-1.1-3.65-.11-1.35,.04-2.67,.54-3.93C1.73,3.03,3.78,1.24,6.65,.35c.6-.19,1.21-.27,1.83-.35Zm8.22,9.03c0-.42-.04-.83-.1-1.24C15.96,3.85,12.16,.88,7.85,1.63c-2.22,.39-3.93,1.59-5.11,3.5-.91,1.48-1.25,3.1-1.05,4.83,.13,1.13,.54,2.17,1.16,3.13,.09,.14,.11,.26,.06,.42-.22,.76-.43,1.53-.64,2.3-.06,.22-.06,.22,.17,.16,.79-.21,1.59-.41,2.38-.62,.15-.04,.27-.02,.4,.06,1.65,.98,3.41,1.32,5.3,.98,3.55-.64,6.17-3.75,6.16-7.36Z"/><path class="cls-1" d="M11.45,13.37c-.51,.01-1.04-.22-1.58-.41-1.55-.54-2.74-1.55-3.76-2.8-.4-.49-.81-.98-1.11-1.55-.24-.45-.43-.93-.47-1.45-.05-.58,.12-1.11,.43-1.6,.06-.1,.14-.19,.21-.29,.28-.4,.67-.49,1.14-.47,.35,.02,.52,.19,.63,.49,.21,.54,.44,1.08,.67,1.61,.07,.17,.06,.33-.03,.49-.14,.24-.32,.46-.5,.67-.21,.23-.21,.32-.05,.59,.72,1.19,1.72,2.06,3.01,2.58,.24,.1,.35,.08,.52-.12,.22-.26,.44-.51,.64-.79,.15-.21,.26-.24,.51-.16,.34,.11,.64,.28,.96,.43,.24,.11,.47,.24,.73,.31,.35,.09,.44,.27,.39,.63-.16,1.14-1.01,1.84-2.33,1.84Z"/></g></g></svg>