<?xml version="1.0" encoding="UTF-8"?><svg id="Layer_2" xmlns="http://www.w3.org/2000/svg" viewBox="0 0 26.07 18.29"><defs><style>.cls-1{fill:#002c2c;}</style></defs><g id="Layer_1-2"><path class="cls-1" d="M13.15,0c1.28-.03,2.71,.03,4.15,.07,1.64,.04,3.28,.1,4.91,.31,.76,.1,1.5,.25,2.12,.73,.65,.5,1.06,1.15,1.24,1.94,.23,.96,.32,1.94,.39,2.92,.09,1.27,.13,2.54,.1,3.81-.04,1.73-.1,3.46-.43,5.17-.32,1.7-1.36,2.66-3.08,2.91-1.24,.18-2.49,.25-3.75,.3-2.37,.09-4.74,.15-7.12,.11-1.79-.03-3.59-.06-5.38-.17-1.11-.06-2.22-.11-3.3-.36-1.29-.3-2.12-1.12-2.47-2.39-.24-.88-.31-1.79-.39-2.7-.08-.98-.11-1.96-.14-2.95-.03-1.24,.03-2.49,.12-3.73,.07-.98,.15-1.96,.38-2.92C.86,1.59,1.93,.65,3.43,.43c1.25-.18,2.51-.26,3.77-.3C9.13,.06,11.06,0,13.15,0Zm-2.68,9.13c0,1.17,0,2.35,0,3.52,0,.34,0,.34,.3,.17,2.05-1.18,4.1-2.36,6.15-3.53,.22-.13,.18-.18,0-.28-2.07-1.18-4.13-2.37-6.19-3.56-.25-.14-.25-.14-.25,.15,0,1.18,0,2.36,0,3.55Z"/></g></svg>